<svg id="Слой_2" data-name="Слой 2" xmlns="http://www.w3.org/2000/svg" viewBox="0 0 422.53 289.63"><defs><style>.cls-1{fill:#ffd94d;}.cls-2{fill:#ffe524;}.cls-3{fill:#ffa0ff;}.cls-4{fill:#d9d9da;}.cls-5{fill:#d95673;}.cls-6{fill:#ffe80a;}.cls-7{fill:#72d715;}.cls-8{fill:#4ff7ff;}</style></defs><path class="cls-1" d="M253.18,228.66,242,251.06c-3.49,7-7.24,13.84-10.84,20.77-6.5,12.54-12,25.59-18.48,38.13-2.91,5.61-6.05,11.09-8.93,16.72-2.33,4.56-4.39,9.37-7.09,13.73-.3.49-.61,1-.93,1.43-.14.2-.78.94-.14.2-.2.24-.39.49-.61.72s-.36.32-.5.49.68-.38,0,0,.76-.23.17-.08a2.18,2.18,0,0,1,1.88.35c.12.09.66.87.34.26.26.51.12.32,0-.21,0-.17-.06-.34-.1-.51.14.72,0,.15,0,0,0-.55-.07-1.1-.08-1.65,0-3.14.29-6.3.5-9.44.68-10.25,1.34-20.53,2.6-30.73,1.74-14.07,3.23-28.17,4.85-42.26.81-7,1.63-13.52,2.6-20.35.52-3.66,1.17-7.33,1.52-11,0-.47.16-.93,0,.06a14.56,14.56,0,0,0,.24-1.74,6.9,6.9,0,0,0-.92-4c-2.18-3.66-7-3.67-10.74-3.73-3.09-.06-6.17-.19-9.26-.33q-11.64-.53-23.28-1.41c-2.84-.22-5.68-.46-8.51-.79-.75-.09.73.12,0,0l-.55-.09c-.28,0-.56-.13-.84-.17-.67-.08.8-.08.43.21-.12.1-.92-.64-.88-.6a2.83,2.83,0,0,1-.63-2c0-.18,0-.37.06-.55.07-.85-.1.6,0-.11s.22-1.43.34-2.15q.49-2.83,1-5.66c.7-3.61,1.41-7.22,2.25-10.8,2.91-12.37,5-25,7.52-37.41,2.68-13.34,5.68-26.6,8.51-39.91q.59-2.72,1.15-5.42a3.06,3.06,0,0,0-2.09-3.69,3,3,0,0,0-3.69,2.09c-2.42,11.45-5.07,22.85-7.43,34.31-2.89,14.09-5.54,28.23-8.42,42.32-1.29,6.32-2.78,12.59-4,18.93-.58,3.09-1.64,6.59-1.14,9.74a8,8,0,0,0,6.85,6.76c6.67,1,13.46,1.28,20.18,1.7,7.2.44,14.42.86,21.64,1l1.62,0a21,21,0,0,1,2.72.12c.47.09.91.23,1.37.35.71.19-.41-.31.14.06a5.06,5.06,0,0,0,.44.26c.38.22-.59-.42-.09-.06.06,0,.46.49.1.06s0,0,0,.08c.33.62-.12-.29,0-.11.27.57-.06.43.06,0a3.45,3.45,0,0,0,0,.64c0,.42-.28.89,0-.06a4.5,4.5,0,0,0-.08.51c-.14,1-.22,1.93-.34,2.9,0,.17-.07.57,0-.2l-.09.67-.18,1.26c-.15,1.09-.31,2.19-.46,3.28q-.52,3.66-1,7.32c-.5,3.59-1,7.19-1.41,10.79-1.76,14.85-3.37,29.72-5.11,44.58-.89,7.67-1.69,15.32-2.27,23-.49,6.32-1,12.65-1.3,19-.17,3.24-.54,10.31,4.34,10.41,2.9.06,4.86-2.7,6.28-4.87a44.52,44.52,0,0,0,2.55-4.58C207.2,333,210.5,326.44,214,320c2.77-5.17,5.56-10.28,8.11-15.57,3.47-7.17,6.84-14.39,10.27-21.57,3.27-6.84,6.87-13.52,10.4-20.23s6.8-13.31,10.15-20l5.46-10.93a3.08,3.08,0,0,0-1.08-4.1,3,3,0,0,0-4.1,1.08Z" transform="translate(-1.23 -67.69)"/><path class="cls-2" d="M254.77,229.71l-11.2,22.41c-3.5,7-7.25,13.83-10.85,20.77-6.5,12.54-12,25.58-18.48,38.12-2.91,5.61-6.05,11.1-8.92,16.72-2.34,4.57-4.4,9.37-7.1,13.74a15.62,15.62,0,0,1-1.91,2.65,5.9,5.9,0,0,1-.51.49c-.12.11,0,0-.28.2s.11.1-.2.07l.57.08c.11,0,.1.22,0-.15,0,0-.11-.35-.16-.57a12.63,12.63,0,0,1-.22-2.6c0-3.15.29-6.31.5-9.44.67-10.25,1.33-20.53,2.6-30.73,1.73-14.07,3.23-28.17,4.85-42.26.8-6.93,1.67-13.84,2.65-20.75.5-3.53,1.13-7.06,1.47-10.61,0-.22.07-.82,0-.34.06-.45.15-.89.18-1.34a5.35,5.35,0,0,0-.71-3.23c-1.91-3.1-6.28-2.93-9.44-3s-6.18-.18-9.26-.32q-11.65-.52-23.28-1.41c-2.84-.22-5.68-.44-8.51-.79-.25,0-.42-.05-.94-.14-.28,0-.56-.13-.84-.17s-.45-.23.07,0A4.21,4.21,0,0,1,153.4,216a4.3,4.3,0,0,1-.83-2.77,68.18,68.18,0,0,1,1.51-8.86c.7-3.61,1.41-7.22,2.25-10.8,2.91-12.37,5-25,7.52-37.41,2.68-13.34,5.68-26.6,8.51-39.91q.58-2.72,1.15-5.42c.4-1.89-2.49-2.69-2.89-.8-2.41,11.45-5.07,22.85-7.42,34.31-2.9,14.09-5.55,28.23-8.42,42.32-1.29,6.32-2.79,12.59-4,18.93-.32,1.71-.64,3.43-.91,5.15a12.72,12.72,0,0,0-.23,3.79,6.58,6.58,0,0,0,5.81,5.71c6.53.94,13.19,1.24,19.78,1.64,7.2.45,14.42.87,21.64,1a31.22,31.22,0,0,1,4.74.2,5.59,5.59,0,0,1,2.31.83,4.29,4.29,0,0,1,.42.38,4.51,4.51,0,0,1,.26.48c.19.43.15.42.13,1,0,.11-.07.79,0,.34,0,.17,0,.34-.07.5-.12.83-.18,1.67-.29,2.51-1,7.71-2.24,15.39-3.15,23.11-1.76,14.86-3.37,29.73-5.11,44.59-.9,7.66-1.69,15.32-2.28,23-.48,6.32-1,12.65-1.29,19-.12,2.25-.79,8.68,2.84,8.91,2.25.14,3.92-2.51,5-4.13a44.52,44.52,0,0,0,2.55-4.58c3.29-6.57,6.6-13.13,10.07-19.61,2.77-5.17,5.55-10.28,8.1-15.57,3.47-7.17,6.84-14.39,10.27-21.57,3.27-6.84,6.87-13.52,10.41-20.23s6.8-13.31,10.14-20l5.46-10.93c.86-1.72-1.73-3.24-2.59-1.51Z" transform="translate(-1.23 -67.69)"/><path class="cls-1" d="M192.44,91.84c-1.8,9-3.88,17.89-5.84,26.82q-4.14,18.85-8.29,37.69-.94,4.25-1.87,8.49a3,3,0,0,0,5.78,1.6l5.13-23.26q4.25-19.34,8.49-38.68c.8-3.69,1.64-7.37,2.38-11.06a3.07,3.07,0,0,0-2.09-3.69,3,3,0,0,0-3.69,2.09Z" transform="translate(-1.23 -67.69)"/><path class="cls-1" d="M178.19,91.47c.93-3.75,1.73-7.52,2.48-11.3.24-1.2.47-2.41.76-3.61.11-.46.23-.92.36-1.37l.18-.56c.16-.49.26-.43,0,0a6.6,6.6,0,0,0,.47-.87c.22-.49-.44.5-.15.19s0,0-.24.14c.47-.31-.57.12-.22.07a3.36,3.36,0,0,0,.45-.14l.54-.11c.4-.08.71-.06.09,0,2.58-.12,5.11-.22,7.69-.14,4.61.16,9.18.62,13.78,1,3.29.23,6.6.22,9.9.28,10.38.18,20.76.25,31.14.57,1.89.06,3.78.12,5.67.23.67,0,1.34.08,2,.14l.71.07c.45,0-.87-.23-.12,0a8.08,8.08,0,0,1,2.57,1.18,1.72,1.72,0,0,1,.56.5s.24.38.13.1c.19.47.08.29.07.1,0,.08-.08.51,0,.17-.06.24-.14.47-.22.7-.75,2.22-1.6,4.4-2.42,6.6-3.36,9-6.62,18-10.13,26.92-.85,2.13-1.69,4.27-2.57,6.39-.17.42-.16.35,0-.08l-.18.41-.3.66c-.24.5-.47,1-.69,1.51-2.09,4.8-4.07,9.66-6,14.52-1.67,4.14-3.12,8.33-4.6,12.55-.57,1.64-1.16,3.28-1.78,4.9s-1,2.54-1.6,3.87c-1.48,3.18-3,6.33-4.25,9.61-1.17,3-2.3,6.93-1.13,10.2,2.12,5.93,9.84,6.38,15.12,6.38q12.58,0,25.17,0c1.92,0,3.86-.08,5.78,0,.56,0,1.13.08,1.69.14l1,.12c-.51-.06,0,0,.09,0l.75.12a26.21,26.21,0,0,1,4,.89c.41.13.54.32.08,0,.51.35-.16-.14-.16-.17s.34.34.42.41.6.75.25.25.18.37.31.55c.32.46-.15-.6-.06-.15,0,.16.1.33.15.5.15.48,0,.37,0-.08,0,.28,0,.56,0,.83s0,.48,0,.72c0-.64,0-.08-.05.22a13.92,13.92,0,0,1-.65,2.11c-.19.48.15-.32-.08.18-.07.16-.14.32-.22.47-.21.45-.45.89-.69,1.33-.54,1-1.14,1.89-1.77,2.8-1.32,1.93-2.63,3.85-3.9,5.81-1.88,2.93-3.69,5.92-5.39,9-.63,1.13-1.26,2.27-1.84,3.44a3.06,3.06,0,0,0,1.07,4.1,3,3,0,0,0,4.11-1.08,135.83,135.83,0,0,1,7.71-13.13c2.43-3.73,5.25-7.23,6.84-11.43a11,11,0,0,0,.41-7.48,8.88,8.88,0,0,0-2.47-3.63c-2.2-1.94-5.92-2.15-8.69-2.52-5.18-.68-10.54-.32-15.75-.32H240.81c-3.95,0-8,.31-11.52-.71-.31-.09-.61-.21-.93-.31-.51-.17.43.27-.17-.09-.2-.12-.41-.21-.6-.34l-.3-.2c-.42-.23.26.35.14.11a2.07,2.07,0,0,0-.4-.38c-.48-.45.13.31,0,0a1.77,1.77,0,0,0-.24-.4c-.31-.39.17.68,0,.07,0-.09-.26-.78-.19-.82s0,.94.05.23c0-.14,0-.29,0-.43,0-.49.05-1,.08-1.45s.26-.89,0-.15c.22-.57.29-1.23.48-1.82.5-1.57,1.11-3.11,1.75-4.62,1.21-2.85,2.84-6,4.08-9,2-4.93,3.49-10,5.4-15s3.95-9.89,6-14.8l.27-.63.19-.46.62-1.44c.26-.59.52-1.19.79-1.78.71-1.51,1.33-3.06,1.95-4.61,3.57-8.84,6.81-17.78,10.15-26.7,1-2.76,2.07-5.51,3.09-8.27s2.21-5.47.62-8.29c-2.36-4.2-7.19-4.91-11.48-5.14-10.07-.53-20.18-.53-30.26-.68-4.42-.07-8.84-.12-13.26-.26-3.37-.11-6.73-.48-10.1-.71-3-.21-5.92-.38-8.89-.41a30.79,30.79,0,0,0-7.36.51c-4.56,1.09-5.15,6.51-5.92,10.37s-1.55,7.55-2.48,11.29,4.86,5.35,5.79,1.6Z" transform="translate(-1.23 -67.69)"/><path class="cls-3" d="M150.57,138.28c-9.44-1.69-18.94-3.17-28.32-5.18-5.06-1.08-10-2.63-14.94-4.1a190,190,0,0,0-28.63-6.49,66.34,66.34,0,0,0-14.83-.6,27.62,27.62,0,0,0-13,4.34,53.36,53.36,0,0,0-13.33,11.58,50.54,50.54,0,0,0-7.42,13.63,92.7,92.7,0,0,0-3,10.87C26,167.13,24.94,172,24,176.8c-1.71,8.37-3.18,16.8-5,25.16s-3.8,16.52-5.73,24.78c-1.58,6.74-3.19,13.48-4.73,20.24-1.14,5-2,10-2.82,15.06-2.06,12.22-4.26,24.46-4.42,36.89A113.89,113.89,0,0,0,1.84,315a59.14,59.14,0,0,0,5.67,17.74,37,37,0,0,0,11.22,14.37c3.64,2.67,8.09,4.39,12.3,5.92a72.22,72.22,0,0,0,16.84,4c5.78.62,11.76.23,17.12-2.16A64.79,64.79,0,0,0,91.56,332.4c5.26-7.51,9.59-15.76,14-23.77,1.6-2.91,3.22-5.81,4.71-8.78s2.91-6.18,4.65-9.14c.6-1,1.23-2,1.9-3a32.44,32.44,0,0,1,2.15-2.89c.75-.89,1.53-1.74,2.36-2.55a18.27,18.27,0,0,1,2.8-2.32,13.76,13.76,0,0,1,4.75-2.25c.64-.17,1.27-.3,1.91-.42l1.08-.18.57-.09c.87-.13-.38,0,.19,0a202,202,0,0,1,25.09-.81c7.5.12,15,.41,22.5.82l3.55.21a3,3,0,0,0,3-3,3.06,3.06,0,0,0-3-3c-13.1-.85-26.29-1.34-39.41-1-3.85.1-7.71.27-11.53.74a26.92,26.92,0,0,0-10.13,2.83c-8.29,4.56-13.07,13.5-17,21.74-3.18,6.74-7,13.23-10.73,19.69-2.3,4-4.63,8.07-7.15,12a61.41,61.41,0,0,1-7.78,9.91A56.2,56.2,0,0,1,65.9,347.76a26,26,0,0,1-7.85,3.09,32.62,32.62,0,0,1-7.71.4,61.23,61.23,0,0,1-15.9-3.34c-1.09-.37-2.18-.76-3.25-1.17-1.4-.54-1.91-.75-2.93-1.21A38.09,38.09,0,0,1,23,342.8c-4.67-3-7.75-7.74-10.15-12.74a51.82,51.82,0,0,1-5.1-15.83,111.48,111.48,0,0,1-.46-15.83,159.85,159.85,0,0,1,1.39-17.62c.76-5.86,1.92-11.93,2.92-17.85.52-3.09,1-6.18,1.62-9.25.8-4.19,1.83-8.34,2.8-12.49,3.71-15.83,7.63-31.63,10.73-47.6,1.87-9.63,3.71-19.28,5.95-28.83,2-8.4,4.09-16.17,9.4-23-.08.11-.28.35.1-.12.2-.24.39-.48.59-.71.41-.49.83-1,1.26-1.42,1-1.05,2-2.05,3.1-3a59.29,59.29,0,0,1,7.15-5.26c.93-.6,1.86-1.17,2.85-1.68.12-.06.83-.35.12-.06l.65-.25c.53-.2,1.06-.36,1.6-.51a25.52,25.52,0,0,1,2.73-.59L63,128c-.71.1.18,0,.27,0,.64-.07,1.29-.13,1.94-.16a56.55,56.55,0,0,1,7.13.06c1.15.07,2.3.17,3.44.29,1.54.17,2.38.28,3.67.47,5,.76,10,1.83,15,3.07,6.69,1.66,13.23,3.78,19.87,5.63,5.56,1.55,11.25,2.55,16.93,3.58L149,144.06a3.08,3.08,0,0,0,3.69-2.09,3,3,0,0,0-2.09-3.69Z" transform="translate(-1.23 -67.69)"/><path class="cls-3" d="M247.77,147.17c6.09,0,12.19,0,18.27-.51s11.9-1.5,17.82-2.54c10.13-1.77,20.39-3.35,30.33-6.05,4.68-1.27,9.22-3,13.93-4.22a103.19,103.19,0,0,1,15.19-2.76c8.94-.89,17.74-.72,26.05,2.1.88.3,1.74.64,2.6,1-.94-.37.14.06.35.16l1,.46c.71.34,1.41.71,2.1,1.1s1.37.8,2,1.23l1,.71.63.46.23.18a30.72,30.72,0,0,1,4.49,4.34l.39.47c.62.77-.32-.45.27.36.31.42.61.84.9,1.28a28.86,28.86,0,0,1,1.76,3.11,31.24,31.24,0,0,1,2,6c.87,3.51,1.7,7,2.54,10.53,3.82,16.18,7.45,32.4,11.27,48.58,2.06,8.69,4.2,17.35,6,26.09,2.24,10.79,4.06,21.66,6,32.51.68,3.85,1.3,7.71,2,11.55,0,.17.07.57,0-.21,0,.21,0,.42.07.64,0,.38.09.77.12,1.16.09,1,.16,2,.22,2.94.13,2.24.21,4.48.27,6.72.12,4.24.16,8.47.18,12.71,0,1.55,0,3.11,0,4.66a51.64,51.64,0,0,1-.63,6.3,40.33,40.33,0,0,1-2,7.78,29.61,29.61,0,0,1-3.7,6.24c-2.89,4-6.12,8.22-10,11.28.59-.46-.14.07-.3.18l-.69.42c-.69.41-1.39.79-2.09,1.16q-2.88,1.51-5.87,2.8a62,62,0,0,1-6.09,2.21c-1,.29-2,.55-3,.75l-.84.15c-.88.16.37,0-.15,0s-1,.09-1.52.09a114.53,114.53,0,0,1-12-.33,30.6,30.6,0,0,1-7-1.57,28.94,28.94,0,0,1-6-3.62c-4.56-3.2-9.13-6.44-12.91-10.57-3.21-3.51-5.5-7.78-7.88-11.86q-3.74-6.4-7.26-12.92c-1-1.78-1.89-3.56-2.78-5.37-.34-.66-.66-1.33-1-2-.07-.15-.51-1.14-.29-.63s-.17-.43-.23-.58c-3-7.69-6.41-15.68-12.16-21.78-3.43-3.62-7.81-5.57-12.5-7a48,48,0,0,0-14-1.85c-9.58-.12-19.17.24-28.74.68q-3.15.13-6.29.3a3.06,3.06,0,0,0-3,3,3,3,0,0,0,3,3q10.46-.56,20.93-.85c5.19-.15,10.39-.23,15.58-.1,1.11,0,2.23.07,3.35.15.51,0,1,.08,1.54.13l.9.11c-.57-.08.27.05.39.07a35.63,35.63,0,0,1,6.64,1.8,22.07,22.07,0,0,1,6,3c-.36-.28.57.5.71.64.37.33.72.67,1.07,1s.69.74,1,1.12.4.47.59.71c0,0,.58.74.31.38a60,60,0,0,1,6.7,11.84c.19.41.37.83.55,1.24.11.24.21.48.31.72,0-.1-.23-.54,0,0,.32.79.64,1.57.95,2.36.54,1.35,1.08,2.7,1.7,4,1.82,3.89,3.91,7.67,6,11.43,5,8.94,9.73,18.53,17.55,25.34,2.24,2,4.63,3.75,7,5.48,2.23,1.61,4.44,3.36,6.81,4.75,4.53,2.67,10,3.45,15.14,3.73,2.18.11,4.37.11,6.55.1a39.13,39.13,0,0,0,5.73-.26c4.64-.71,9.13-2.6,13.38-4.54a36.54,36.54,0,0,0,9.28-5.46,73.45,73.45,0,0,0,10.79-12.74c5.55-7.88,6.55-17.63,6.53-27,0-4.29-.06-8.58-.18-12.88a103.48,103.48,0,0,0-.87-12.68c-1.4-9.18-3.18-18.32-4.82-27.47-2.06-11.51-4.39-22.95-7.12-34.33-3.61-15-7.06-30.1-10.56-45.17-1.81-7.8-3.58-15.62-5.56-23.39a33.38,33.38,0,0,0-16.35-20.72A47.27,47.27,0,0,0,361,125.28c-11.2-1.45-22.57-.1-33.5,2.54-4.87,1.18-9.55,3-14.37,4.31s-9.6,2.3-14.44,3.24c-5.25,1-10.52,1.93-15.78,2.85-5.77,1-11.5,2-17.35,2.48s-11.88.47-17.82.47c-3.86,0-3.87,6,0,6Z" transform="translate(-1.23 -67.69)"/><path class="cls-2" d="M176.71,91.07c.94-3.75,1.73-7.52,2.48-11.3.24-1.2.48-2.41.76-3.61.12-.46.23-.92.37-1.37l.18-.56c0-.09.21-.55.12-.34a5.18,5.18,0,0,1,.47-.87s.41-.42.14-.22c.27-.21-.06,0,.14-.08l.46-.13a7.72,7.72,0,0,1,1-.2,48,48,0,0,1,7.68-.14c4.61.16,9.18.62,13.78,1,3.29.23,6.6.22,9.9.28,10.38.18,20.76.25,31.14.57,1.89.06,3.78.12,5.67.23.67,0,1.34.08,2,.14l.71.07c.4,0-.18,0,0,0a2.16,2.16,0,0,1,.27.05A9.56,9.56,0,0,1,257,75.86a2.57,2.57,0,0,1,1.24,3.27c-.75,2.22-1.6,4.4-2.42,6.59-3.37,9-6.62,18-10.14,26.93-3.07,7.79-6.5,15.42-9.71,23.4-1.67,4.15-3.12,8.34-4.6,12.56-1.08,3.07-2.15,6.18-3.53,9.13s-2.9,6.09-4.11,9.24c-1.06,2.78-2.24,6.42-1.12,9.41,1.91,5.13,9.19,5.28,13.68,5.28q12.57,0,25.16,0c4.61,0,9.31-.11,13.74,1.36a3.12,3.12,0,0,1,1.79,1.73,3.06,3.06,0,0,1,.25.71,3.7,3.7,0,0,1,.12,1.15,9.75,9.75,0,0,1-.79,3.45c-1.58,4-4.51,7.38-6.81,10.94-1.89,2.94-3.69,5.92-5.39,9-.64,1.13-1.27,2.27-1.85,3.43-.86,1.72,1.73,3.24,2.59,1.52a136.08,136.08,0,0,1,7.72-13.14c2.34-3.6,5.14-7,6.69-11.07a9.62,9.62,0,0,0,.41-6.68,7.41,7.41,0,0,0-2.09-3,7.33,7.33,0,0,0-3.14-1.29,44.82,44.82,0,0,0-4.49-.79c-5.18-.69-10.54-.32-15.75-.32H240.78c-3.93,0-8.09.35-11.91-.77a7.44,7.44,0,0,1-2.53-1.21,5,5,0,0,1-.61-.64c-.08-.13-.16-.27-.23-.41s0,.1-.13-.28a7.51,7.51,0,0,1-.19-.82c.06.37,0-.43,0-.6,0-.49.06-1,.09-1.45.13-2.21,1.33-4.81,2.25-7,1.28-3.05,2.83-6,4.07-9,2-4.93,3.49-10,5.41-15,3.08-8,6.62-15.79,9.83-23.73,3.57-8.84,6.81-17.78,10.15-26.7,1-2.76,2.07-5.51,3.09-8.27.84-2.29,2.1-4.76.77-7.13-2.08-3.7-6.44-4.2-10.19-4.4-10.07-.53-20.18-.53-30.25-.68-4.42-.07-8.85-.12-13.26-.26-3.38-.11-6.74-.48-10.11-.71-3-.21-5.92-.38-8.89-.41a28.49,28.49,0,0,0-7,.46c-3.86.92-4.23,6.11-4.87,9.31-.75,3.79-1.55,7.56-2.48,11.3-.46,1.87,2.43,2.67,2.89.8Z" transform="translate(-1.23 -67.69)"/><path class="cls-2" d="M194.32,91.77c-1.8,9-3.87,17.89-5.84,26.82q-4.12,18.85-8.29,37.7-.93,4.23-1.87,8.48c-.41,1.88,2.48,2.69,2.89.8l5.13-23.25q4.26-19.35,8.49-38.69c.8-3.69,1.64-7.36,2.38-11.06.38-1.89-2.51-2.69-2.89-.8Z" transform="translate(-1.23 -67.69)"/><path class="cls-3" d="M29.38,250.87a235.14,235.14,0,0,0-7.11,36.8,3,3,0,0,0,3,3,3.07,3.07,0,0,0,3-3,228.16,228.16,0,0,1,6.89-35.2c1-3.74-4.79-5.33-5.78-1.6Z" transform="translate(-1.23 -67.69)"/><path class="cls-3" d="M22.27,308c0,3.39,1.35,6.77,2.61,9.87.86,2.12,1.77,4.24,2.8,6.29a3,3,0,0,0,4.1,1.08,3.07,3.07,0,0,0,1.08-4.1c-.26-.52-.5-1-.75-1.56s-.51-1.13-.77-1.7l-.43-1c-.21-.48.3.71,0,0l-.23-.56c-.62-1.54-1.21-3.1-1.68-4.69-.22-.74-.42-1.49-.57-2.24,0-.17-.07-.35-.1-.52-.12-.71,0,.37,0,.16s-.06-.65-.06-1a3,3,0,0,0-6,0Z" transform="translate(-1.23 -67.69)"/><path class="cls-3" d="M388.38,251.47c1.4,5,2.26,10.12,3.23,15.19q1.62,8.55,3.12,17.13c.22,1.22.43,2.45.65,3.68a3,3,0,0,0,3.69,2.09,3.07,3.07,0,0,0,2.09-3.69c-1.65-9.59-3.36-19.18-5.33-28.71-.5-2.44-1-4.89-1.67-7.29-1.05-3.71-6.84-2.13-5.78,1.6Z" transform="translate(-1.23 -67.69)"/><path class="cls-3" d="M397.38,306.87c-.49,1.45-1,2.89-1.47,4.33-.24.67-.49,1.35-.74,2-.13.32-.25.65-.38,1-.07.16-.13.32-.2.47s-.29.68,0,.11a32.83,32.83,0,0,1-1.68,3.42c-.31.52-.63,1-1,1.53-.07.09-.37.39-.07.1s0,0-.08.08-.38.43-.58.64a3,3,0,0,0,4.24,4.24,22.37,22.37,0,0,0,4.34-7c1.32-3.05,2.38-6.19,3.43-9.34a3,3,0,0,0-2.09-3.69,3.07,3.07,0,0,0-3.69,2.09Z" transform="translate(-1.23 -67.69)"/><path class="cls-4" d="M100.38,225.87c-.21,1-.43,2-.7,3a13.51,13.51,0,0,1-.9,2.52c-.17.32-.35.63-.55.93s.26-.27-.06.09c-.12.14-.25.27-.38.4-.33.33.35-.21,0,0l-.46.28c-.4.2.4-.1,0,0-.22.05-.61.09-.19.06a57.37,57.37,0,0,1-8.79-.29,21.46,21.46,0,0,1-4.35-.73c-.32-.09-.63-.22-1-.3-.14,0-.54-.24.08,0-.13-.06-.27-.12-.39-.19l-.67-.4s.54.45.2.12.23.54.09.13a3.75,3.75,0,0,0-.24-.44c-.21-.4.12.42,0,0s-.2-.65-.27-1a13.14,13.14,0,0,1-.17-2.49,32.48,32.48,0,0,1,.55-5.58c.64-3.6,1.59-7.18,1.61-10.86a3,3,0,0,0-3-3c-1.13,0-2.26,0-3.39-.08s-2-.1-3.08-.19l-1.48-.14c-.54-.07.69.12-.18,0l-.77-.13a40.59,40.59,0,0,1-5.06-1.46c-.28-.1-.55-.19-.82-.3-.55-.2-.19-.07-.07,0-.47-.2-.91-.46-1.36-.7-.13-.08-.59-.44-.14-.07a6.17,6.17,0,0,1-.46-.43l-.09-.09c.21.3.22.3,0,0-.06-.64-.1.44-.1-.17,0-.83-.08.67,0-.22,0-.19,0-.38,0-.57v-1.28c0-1.06,0-2.13.06-3.19s.11-2.34.2-3.5c0-.55.1-1.1.17-1.65s-.11.69,0-.32c0-.3.09-.61.15-.91.1-.51.21-1,.34-1.53.06-.21.13-.42.19-.63,0,0,.29-.77.1-.32-.12.3.31-.54.42-.71.3-.44-.44.45.18-.21a8.5,8.5,0,0,1,.75-.72,5.86,5.86,0,0,1,2-.87,8.2,8.2,0,0,1,3.15,0c3.19.54,6.34,1.7,9.49,2.45,1.33.32,2.65.62,4,.89,1.49.3,3.38-.41,3.69-2.09.55-2.93,1.13-5.86,1.73-8.77.43-2.08.87-4.15,1.38-6.21.17-.72.35-1.44.57-2.14,0-.08.26-.6.22-.66.1.14-.51,1,0,.08.16-.28.55-.93.61-1s.26-.22.32-.33c.14-.28.07,0-.07.06s-.63.26-.59.17a9.73,9.73,0,0,1,1.38-.21l1-.2.63-.11c.69-.12-.24,0,.32,0a17.65,17.65,0,0,1,8.73,1.44,26.76,26.76,0,0,1,2.4,1.19c.29.16.58.33.86.51s.81.56.63.42.27.24.35.32.29.31.44.45-.26-.51,0,0a2.38,2.38,0,0,0,.26.5c-.79-1,.29.11,0,.23,0,0,0-.88,0-.27,0,.18,0,.35,0,.53,0,.35,0,.69,0,1s0,.49-.06.73-.11.89-.09.73c0,.25-.22,1.38-.33,2-.15.79-.31,1.59-.51,2.37-.16.63-.36,1.23-.54,1.85s.21-.45-.07.17a11.67,11.67,0,0,0-.52,1.27,23.49,23.49,0,0,0-.84,7.14,3.07,3.07,0,0,0,3,3c2.27.19,4.53.42,6.79.67l2.53.31c.6.07.15,0,0,0l.67.09,1.38.21c.64.11,1.27.22,1.9.37.24.05.48.11.71.18l.5.17c.55.2-.15-.12.4.18a6.76,6.76,0,0,1,1,.61c-.52-.41.7.85.31.33a3.83,3.83,0,0,1,.76,1.92,11.75,11.75,0,0,1,0,2.22c0,.31-.07.61-.1.91-.09.8.06-.42,0,.09,0,.28-.08.55-.13.82a62.8,62.8,0,0,1-2.21,10.16c0,.14-.1.27-.14.4-.19.6.2-.39.09-.21-.19.33-.18.12.18-.15-.22.17-.54.31.09,0a3.37,3.37,0,0,1-.32.19c-.56.26.62-.08-.05,0-.4.06-.8.21-1.2.27.7-.1-.27,0-.34,0-.31,0-.63,0-1,0-.59,0-1.17,0-1.76-.06a38.36,38.36,0,0,1-4.28-.62,3.08,3.08,0,0,0-3.69,2.09,3,3,0,0,0,2.09,3.69,32.85,32.85,0,0,0,8.89.85c2.09-.17,4.27-.63,5.76-2.22,1.18-1.24,1.58-3.12,2-4.74.52-2,.94-4.13,1.32-6.22.8-4.49,1.74-9.46-1.43-13.31-2.69-3.28-7.1-3.7-11-4.22-3.23-.43-6.48-.76-9.73-1l3,3a18.68,18.68,0,0,1,.67-5.66c.12-.43-.19.44,0,.09l.12-.27c.17-.38.33-.76.46-1.14a17.72,17.72,0,0,0,.58-2c.35-1.41.61-2.84.82-4.28.3-2.05.7-4.34.08-6.38-.78-2.58-3-4.3-5.28-5.55a25.68,25.68,0,0,0-11.59-3.44,22.64,22.64,0,0,0-4.43.35c-.42.07-.83.15-1.24.24l-.42.08c-.64.15.26,0,.3,0a8.38,8.38,0,0,0-2.4.65A7.26,7.26,0,0,0,88.14,167a11.34,11.34,0,0,0-1.55,3.09c-.57,1.79-1,3.66-1.35,5.5q-1.27,5.85-2.36,11.74l3.69-2.09c-1.34-.27-2.66-.58-4-.9-3.17-.75-6.3-1.85-9.49-2.45a13.38,13.38,0,0,0-9.26,1.21,10.48,10.48,0,0,0-4.78,6.1c-1.41,4.61-1.38,9.93-1.29,14.71.11,5.89,5.89,7.49,10.55,8.91,4,1.21,8.31,1.31,12.45,1.31l-3-3c0,3.44-.94,6.49-1.51,10a38.29,38.29,0,0,0-.64,7.16,12.17,12.17,0,0,0,1.56,6.37c2.09,3.14,6.46,3.66,9.88,4.06a50,50,0,0,0,10.3.39c5.9-.54,7.8-6.74,8.8-11.66a3.08,3.08,0,0,0-2.09-3.69,3,3,0,0,0-3.69,2.09Z" transform="translate(-1.23 -67.69)"/><path class="cls-5" d="M332.78,164.08a20.56,20.56,0,0,0-9.71-2.15,11.87,11.87,0,0,0-6.44,2,12.28,12.28,0,0,0-4.57,7c-1.46,5.31-.69,11.13,3.09,15.28,2.3,2.53,5.44,3.29,8.75,3.46,5.7.27,11.28-2.24,14-7.45a3.07,3.07,0,0,0-1.08-4.1,3,3,0,0,0-4.1,1.08c-.25.47-.53.91-.81,1.37,0,0-.27.38-.06.1s-.1.11-.16.18-.37.41-.57.61-.34.31-.51.47c-.41.39.35-.21-.12.09a13.54,13.54,0,0,1-1.32.79c-.29.15-.55.23-.07,0l-.61.23a12.11,12.11,0,0,1-1.31.36c-.2.05-.41.08-.61.12-.7.14.43,0-.11,0s-.86.07-1.29.08c-.8,0-1.58-.06-2.38-.11-.21,0,.72.12.14,0l-.47-.08c-.3-.06-.6-.12-.9-.2s-.51-.13-.75-.21l-.29-.11c-.45-.13.6.33.37.16s-.33-.17-.49-.27-.21-.17-.32-.23.57.5.15.1c-.21-.2-.43-.39-.64-.6l-.32-.36c-.49-.54.16.28-.07-.07s-.43-.62-.62-.94-.19-.35-.29-.53-.37-.77-.2-.39-.13-.37-.16-.46-.14-.43-.21-.65-.12-.46-.17-.69-.16-.91-.11-.58,0-.38,0-.5c0-.27,0-.55,0-.82,0-.53.07-1.56.11-1.79,0,.14.1-.53.13-.7.07-.33.15-.65.24-1s.19-.68.3-1c0-.14.09-.28.14-.42.17-.55-.12.2,0-.1a10.31,10.31,0,0,1,.68-1.22c.06-.1.13-.18.19-.28s-.37.41-.14.19.32-.37.49-.53l.45-.41c-.42.38-.17.13.11-.05l.5-.29c.33-.17.6-.21.07-.05.36-.11.71-.26,1.08-.35s.43-.1.65-.14c.68-.14-.45,0,.05,0a17.77,17.77,0,0,1,2.73,0l.28,0c.48,0-.25-.05-.26,0a3,3,0,0,1,.62.1c.4.08.79.16,1.18.26A18.91,18.91,0,0,1,329,169c.19.06,1.1.44.49.17s.07,0,.23.12a3.08,3.08,0,0,0,4.11-1.08,3,3,0,0,0-1.08-4.1Z" transform="translate(-1.23 -67.69)"/><path class="cls-6" d="M363.61,185a20.54,20.54,0,0,0-9.7-2.15,12,12,0,0,0-6.45,2,12.2,12.2,0,0,0-4.56,7c-1.47,5.3-.7,11.12,3.08,15.28,2.3,2.53,5.44,3.29,8.75,3.45,5.7.28,11.28-2.23,14-7.44a3.08,3.08,0,0,0-1.08-4.11,3,3,0,0,0-4.1,1.08c-.25.47-.53.92-.81,1.37,0,0-.27.39-.06.1s-.09.11-.15.18-.38.42-.58.61-.34.32-.51.47c-.41.39.35-.21-.11.09a15,15,0,0,1-1.33.79c-.29.15-.55.23-.07.06l-.6.22a13,13,0,0,1-1.32.37l-.61.12c-.7.13.43,0-.11,0s-.86.07-1.29.08c-.8,0-1.58-.06-2.38-.11-.21,0,.73.12.14,0l-.47-.08c-.3,0-.6-.12-.9-.2s-.51-.13-.75-.21l-.29-.1c-.45-.14.6.33.37.15s-.33-.17-.48-.27-.22-.17-.33-.23.57.5.15.11l-.64-.61-.32-.36c-.49-.54.17.28-.07-.07s-.43-.61-.62-.94c-.1-.17-.19-.35-.28-.52s-.38-.78-.21-.4-.13-.36-.16-.46-.14-.43-.2-.65-.12-.46-.17-.69-.16-.91-.12-.58,0-.38,0-.5l0-.81c0-.54.07-1.57.11-1.8l.13-.69c.07-.33.15-.66.24-1s.19-.68.3-1c0-.14.09-.28.14-.42.17-.54-.11.2,0-.1a12.18,12.18,0,0,1,.68-1.22c.06-.1.13-.18.19-.27s-.37.4-.14.18.32-.36.49-.53l.45-.4c-.41.38-.17.12.11-.05a5,5,0,0,1,.5-.29c.33-.18.6-.22.07-.06.36-.11.71-.26,1.08-.35l.65-.14c.68-.14-.45,0,.05,0a17.76,17.76,0,0,1,2.73,0l.28,0c.48,0-.25,0-.25,0a4,4,0,0,1,.61.11c.4.07.79.15,1.18.25a21.39,21.39,0,0,1,2.07.62c.19.07,1.1.44.49.18s.07,0,.24.11a3.07,3.07,0,0,0,4.1-1.07,3,3,0,0,0-1.08-4.11Z" transform="translate(-1.23 -67.69)"/><path class="cls-7" d="M327.76,231.39c-.07-.13-.13-.28-.2-.41-.17-.35.33.84.13.3,0-.13-.1-.25-.14-.38a17.81,17.81,0,0,1-.56-1.75c-.19-.68-.33-1.38-.46-2.08s0,.28,0,.08,0-.43-.06-.65c0-.4-.05-.81-.05-1.22s0-.75.05-1.13c0-.61-.06.21,0,0s.09-.5.15-.75.25-.72.34-1.08-.12.26-.12.27a2.06,2.06,0,0,0,.12-.26c.11-.19.21-.39.33-.59s.48-.68.21-.33.15-.15.22-.23.3-.29.45-.43c.48-.46-.27.13.15-.13s.79-.47,1.2-.69.08,0,0,0l.37-.13,1.14-.36a16.37,16.37,0,0,1,1.94-.42c-.44.07.28,0,.41,0,.38,0,.77,0,1.15-.05.54,0,1.07,0,1.6.09-.53-.05-.05,0,.2.05a7.91,7.91,0,0,1,.81.19,14.13,14.13,0,0,1,1.39.46c-.47-.17-.25-.1,0,0l.62.33c.33.19.64.41,1,.62.55.37-.35-.33,0,0,.14.13.29.25.42.38s.42.42.63.64.39.51.06.05,0,0,.07.13.18.34.29.5c.23.32-.21-.59-.17-.42s.08.21.11.32A13,13,0,0,1,342,224c0,.15.06.31.08.46.09.52.13.06,0-.15a3.39,3.39,0,0,1,.1,1.24c0,.44,0,.89,0,1.33,0,.23,0,.46,0,.69l0,.3c0,.13-.17.64,0,.2s-.05.26-.08.41-.1.48-.16.72c-.12.48-.3.93-.45,1.41-.1.31.09-.21.09-.22-.08.16-.15.32-.23.49s-.24.45-.38.67-.3.42-.43.65.1-.13.13-.16-.2.24-.3.35-.38.4-.58.59l-.26.25s-.59.46-.27.23-.41.26-.54.34c-.3.19-.62.36-.94.53a3,3,0,0,0,3,5.18c4.77-2.45,7.25-7.3,7.45-12.53.12-3.31-.46-6.83-2.68-9.38-3.29-3.8-8.6-5.06-13.42-4.41a14.68,14.68,0,0,0-8.36,3.58,10.74,10.74,0,0,0-3,5.93,19.93,19.93,0,0,0,1.93,11.73,3,3,0,0,0,4.1,1.08,3.07,3.07,0,0,0,1.08-4.11Z" transform="translate(-1.23 -67.69)"/><path class="cls-8" d="M299,201.48l.42-.2c.34-.17-.84.33-.3.13l.37-.14c.58-.21,1.16-.4,1.75-.56s1.38-.33,2.08-.46-.27,0-.07,0l.64-.07c.41,0,.81-.05,1.22-.05s.76,0,1.14.05c.61,0-.22-.06,0,0s.5.09.74.15.72.25,1.09.34-.27-.11-.28-.12l.26.12c.2.11.4.21.59.33s.68.49.34.21.15.15.23.22l.43.45c.45.48-.13-.27.13.15s.47.79.69,1.2,0,.08,0,0c0,.13.09.25.13.37.13.38.25.76.36,1.15.17.63.31,1.28.42,1.93-.07-.44,0,.28,0,.41,0,.39.05.77.05,1.15,0,.54,0,1.07-.08,1.61,0-.54,0-.06-.05.19s-.12.54-.19.81c-.13.47-.29.93-.46,1.39.17-.46.1-.25-.05.05s-.21.42-.33.62-.4.64-.61.95c-.37.55.33-.35,0,0l-.38.43-.64.62c-.1.09-.51.39-.06.06s0,0-.12.07-.35.18-.5.29c-.32.23.59-.21.42-.17a2.08,2.08,0,0,0-.32.12,15.54,15.54,0,0,1-1.63.41l-.46.08c-.53.1-.07.13.14,0a3.33,3.33,0,0,1-1.23.1c-.45,0-.89,0-1.33,0l-.69,0-.3,0c-.14,0-.65-.17-.21,0s-.26-.05-.41-.08-.47-.1-.71-.17c-.48-.12-.94-.3-1.41-.45-.32-.1.21.09.22.1-.16-.09-.33-.16-.49-.24s-.45-.24-.67-.38-.43-.3-.65-.43.13.1.16.13L298,214c-.2-.19-.4-.38-.59-.58l-.24-.26s-.46-.59-.23-.27-.27-.41-.35-.54a10.71,10.71,0,0,1-.52-.94,3,3,0,0,0-5.18,3c2.45,4.77,7.29,7.26,12.53,7.45,3.3.13,6.82-.46,9.38-2.67,3.79-3.3,5.05-8.61,4.41-13.43a14.63,14.63,0,0,0-3.58-8.35,10.72,10.72,0,0,0-5.93-3A20,20,0,0,0,296,196.3a3,3,0,0,0-1.07,4.1,3.06,3.06,0,0,0,4.1,1.08Z" transform="translate(-1.23 -67.69)"/></svg>